<svg width="22" height="20" viewBox="0 0 22 20" fill="none" xmlns="http://www.w3.org/2000/svg">
<path d="M18.86 11.5199V19.0023C18.86 19.2725 18.7735 19.5064 18.6007 19.7038C18.4278 19.9013 18.2232 20 17.9866 20H12.7467V14.014H9.25334V20H4.01337C3.77684 20 3.57216 19.9013 3.39931 19.7038C3.22646 19.5064 3.14004 19.2725 3.14004 19.0023V11.5199C3.14004 11.5095 3.14232 11.4939 3.14686 11.4731C3.15141 11.4523 3.15369 11.4367 3.15369 11.4263L11 4.03741L18.8463 11.4263C18.8554 11.4471 18.86 11.4783 18.86 11.5199ZM21.903 10.4443L21.0569 11.5978C20.9841 11.6913 20.8886 11.7485 20.7704 11.7693H20.7294C20.6112 11.7693 20.5156 11.7329 20.4429 11.6602L11 2.66563L1.55713 11.6602C1.44797 11.7433 1.3388 11.7797 1.22963 11.7693C1.11137 11.7485 1.01585 11.6913 0.943074 11.5978L0.0970365 10.4443C0.0242591 10.3403 -0.00758098 10.2182 0.0015162 10.0779C0.0106134 9.93765 0.0606478 9.82593 0.15162 9.74279L9.96292 0.4053C10.254 0.1351 10.5997 0 11 0C11.4003 0 11.746 0.1351 12.0371 0.4053L15.3666 3.58535V0.545596C15.3666 0.400104 15.4076 0.280592 15.4895 0.187062C15.5713 0.0935308 15.6759 0.0467654 15.8033 0.0467654H18.4233C18.5507 0.0467654 18.6553 0.0935308 18.7371 0.187062C18.819 0.280592 18.86 0.400104 18.86 0.545596V6.90569L21.8484 9.74279C21.9394 9.82593 21.9894 9.93765 21.9985 10.0779C22.0076 10.2182 21.9757 10.3403 21.903 10.4443Z" fill="white"/>
</svg>
