<svg width="91" height="182" viewBox="0 0 91 182" fill="none" xmlns="http://www.w3.org/2000/svg">
<path d="M90.475 0.181813V182H41.1142V45.6364H40.0488L0.276102 69.429V27.5256L45.0204 0.181813H90.475Z" fill="url(#paint0_linear_65_4)" fill-opacity="0.4"/>
<path d="M90.475 0.181812H94.475V-3.81819H90.475V0.181812ZM90.475 182V186H94.475V182H90.475ZM41.1142 182H37.1142V186H41.1142V182ZM41.1142 45.6364H45.1142V41.6364H41.1142V45.6364ZM40.0488 45.6364V41.6364H38.9437L37.9954 42.2037L40.0488 45.6364ZM0.276101 69.429H-3.7239V76.4829L2.32958 72.8616L0.276101 69.429ZM0.276101 27.5256L-1.8097 24.1124L-3.7239 25.2822V27.5256H0.276101ZM45.0204 0.181812V-3.81819H43.895L42.9346 -3.23132L45.0204 0.181812ZM86.475 0.181812V182H94.475V0.181812H86.475ZM90.475 178H41.1142V186H90.475V178ZM45.1142 182V45.6364H37.1142V182H45.1142ZM41.1142 41.6364H40.0488V49.6364H41.1142V41.6364ZM37.9954 42.2037L-1.77737 65.9963L2.32958 72.8616L42.1023 49.069L37.9954 42.2037ZM4.2761 69.429V27.5256H-3.7239V69.429H4.2761ZM2.3619 30.9387L47.1062 3.59494L42.9346 -3.23132L-1.8097 24.1124L2.3619 30.9387ZM45.0204 4.18181H90.475V-3.81819H45.0204V4.18181Z" fill="url(#paint1_linear_65_4)"/>
<defs>
<linearGradient id="paint0_linear_65_4" x1="52.5002" y1="186.862" x2="52.5003" y2="-38" gradientUnits="userSpaceOnUse">
<stop stop-color="#0088FF" stop-opacity="0.1"/>
<stop offset="1" stop-color="#01E0FF"/>
</linearGradient>
<linearGradient id="paint1_linear_65_4" x1="52.4999" y1="186.862" x2="52.5003" y2="-38" gradientUnits="userSpaceOnUse">
<stop stop-color="#0088FF" stop-opacity="0.01"/>
<stop offset="1" stop-color="#01E0FF"/>
</linearGradient>
</defs>
</svg>
