<svg width="144" height="185" viewBox="0 0 144 185" fill="none" xmlns="http://www.w3.org/2000/svg">
<path d="M4.26332 185V149.489L72.09 93.3807C76.5881 89.652 80.4352 86.16 83.6312 82.9048C86.8864 79.5904 89.3722 76.1873 91.0886 72.6953C92.8642 69.2034 93.752 65.3267 93.752 61.0653C93.752 56.3897 92.7458 52.3946 90.7335 49.0803C88.7804 45.7659 86.0578 43.2209 82.5659 41.4453C79.0739 39.6106 75.0493 38.6932 70.492 38.6932C65.9347 38.6932 61.9101 39.6106 58.4181 41.4453C54.9854 43.2801 52.322 45.973 50.4281 49.5241C48.5342 53.0753 47.5872 57.3958 47.5872 62.4858H0.712181C0.712181 49.7017 3.58268 38.6932 9.32369 29.4602C15.0647 20.2273 23.1731 13.125 33.649 8.15341C44.1248 3.18181 56.4058 0.696016 70.492 0.696016C85.0517 0.696016 97.6582 3.03385 108.312 7.70952C119.024 12.326 127.281 18.8364 133.081 27.2408C138.94 35.6451 141.87 45.4995 141.87 56.804C141.87 63.7879 140.42 70.7422 137.52 77.6669C134.62 84.5324 129.411 92.1378 121.895 100.483C114.378 108.828 103.695 118.771 89.8457 130.312L72.8002 144.517V145.582H143.823V185H4.26332Z" fill="url(#paint0_linear_401_2)" fill-opacity="0.4"/>
<path d="M4.26332 185H0.263317V189H4.26332V185ZM4.26332 149.489L1.71371 146.407L0.263317 147.606V149.489H4.26332ZM72.09 93.3807L74.6396 96.4628L74.6428 96.4602L72.09 93.3807ZM83.6312 82.9048L80.7774 80.102L80.777 80.1025L83.6312 82.9048ZM91.0886 72.6953L87.5231 70.8823L87.5108 70.9065L87.4988 70.9308L91.0886 72.6953ZM90.7335 49.0803L87.2873 51.111L87.3007 51.1337L87.3143 51.1562L90.7335 49.0803ZM82.5659 41.4453L80.7054 44.9863L80.729 44.9987L80.7529 45.0109L82.5659 41.4453ZM58.4181 41.4453L56.5576 37.9043L56.5451 37.9109L56.5326 37.9176L58.4181 41.4453ZM50.4281 49.5241L46.8987 47.6418L46.8987 47.6418L50.4281 49.5241ZM47.5872 62.4858V66.4858H51.5872V62.4858H47.5872ZM0.712181 62.4858H-3.28782V66.4858H0.712181V62.4858ZM9.32369 29.4602L5.92681 27.3481L5.92681 27.3481L9.32369 29.4602ZM33.649 8.15341L35.364 11.7671L35.364 11.7671L33.649 8.15341ZM108.312 7.70952L106.704 11.3723L106.716 11.3776L106.729 11.3829L108.312 7.70952ZM133.081 27.2408L129.789 29.5128L129.794 29.5206L129.8 29.5284L133.081 27.2408ZM137.52 77.6669L141.204 79.2234L141.209 79.2121L137.52 77.6669ZM121.895 100.483L124.867 103.16L124.867 103.16L121.895 100.483ZM89.8457 130.312L92.4064 133.385L89.8457 130.312ZM72.8002 144.517L70.2395 141.444L68.8002 142.644V144.517H72.8002ZM72.8002 145.582H68.8002V149.582H72.8002V145.582ZM143.823 145.582H147.823V141.582H143.823V145.582ZM143.823 185V189H147.823V185H143.823ZM8.26332 185V149.489H0.263317V185H8.26332ZM6.81293 152.571L74.6396 96.4628L69.5404 90.2986L1.71371 146.407L6.81293 152.571ZM74.6428 96.4602C79.2185 92.6672 83.1716 89.0824 86.4855 85.7072L80.777 80.1025C77.6988 83.2376 73.9577 86.6368 69.5373 90.3012L74.6428 96.4602ZM86.485 85.7077C89.9831 82.146 92.7412 78.4009 94.6784 74.4598L87.4988 70.9308C86.0032 73.9736 83.7898 77.0349 80.7774 80.102L86.485 85.7077ZM94.6541 74.5083C96.7398 70.4064 97.752 65.9004 97.752 61.0653H89.752C89.752 64.753 88.9885 68.0003 87.5231 70.8823L94.6541 74.5083ZM97.752 61.0653C97.752 55.8089 96.6164 51.0623 94.1526 47.0043L87.3143 51.1562C88.8752 53.727 89.752 56.9704 89.752 61.0653H97.752ZM94.1796 47.0495C91.8321 43.0657 88.5372 39.9942 84.3789 37.8798L80.7529 45.0109C83.5785 46.4476 85.7287 48.466 87.2873 51.111L94.1796 47.0495ZM84.4264 37.9043C80.2773 35.7243 75.5963 34.6932 70.492 34.6932V42.6932C74.5023 42.6932 77.8706 43.4968 80.7054 44.9863L84.4264 37.9043ZM70.492 34.6932C65.3877 34.6932 60.7067 35.7243 56.5576 37.9043L60.2787 44.9863C63.1135 43.4968 66.4818 42.6932 70.492 42.6932V34.6932ZM56.5326 37.9176C52.3763 40.1391 49.1521 43.4167 46.8987 47.6418L53.9575 51.4065C55.492 48.5294 57.5945 46.421 60.3037 44.973L56.5326 37.9176ZM46.8987 47.6418C44.6246 51.9056 43.5872 56.9092 43.5872 62.4858H51.5872C51.5872 57.8824 52.4437 54.2449 53.9575 51.4065L46.8987 47.6418ZM47.5872 58.4858H0.712181V66.4858H47.5872V58.4858ZM4.71218 62.4858C4.71218 50.3151 7.4386 40.0671 12.7206 31.5724L5.92681 27.3481C-0.273237 37.3193 -3.28782 49.0883 -3.28782 62.4858H4.71218ZM12.7206 31.5724C18.0292 23.0348 25.5329 16.4327 35.364 11.7671L31.934 4.5397C20.8134 9.81728 12.1002 17.4198 5.92681 27.3481L12.7206 31.5724ZM35.364 11.7671C45.2012 7.09857 56.8739 4.69602 70.492 4.69602V-3.30398C55.9378 -3.30398 43.0484 -0.734941 31.934 4.5397L35.364 11.7671ZM70.492 4.69602C84.633 4.69602 96.6678 6.96745 106.704 11.3723L109.919 4.04676C98.6486 -0.899749 85.4703 -3.30398 70.492 -3.30398V4.69602ZM106.729 11.3829C116.852 15.7454 124.473 21.8111 129.789 29.5128L136.373 24.9688C130.088 15.8617 121.197 8.90659 109.895 4.03609L106.729 11.3829ZM129.8 29.5284C135.143 37.1926 137.87 46.2292 137.87 56.804H145.87C145.87 44.7699 142.737 34.0976 136.362 24.9531L129.8 29.5284ZM137.87 56.804C137.87 63.2185 136.541 69.6493 133.83 76.1217L141.209 79.2121C144.299 71.8351 145.87 64.3572 145.87 56.804H137.87ZM133.835 76.1104C131.173 82.413 126.276 89.6414 118.923 97.8059L124.867 103.16C132.546 94.6341 138.067 86.6519 141.204 79.2234L133.835 76.1104ZM118.923 97.8059C111.586 105.951 101.064 115.757 87.285 127.24L92.4064 133.385C106.326 121.786 117.17 111.705 124.867 103.16L118.923 97.8059ZM87.285 127.24L70.2395 141.444L75.361 147.59L92.4064 133.385L87.285 127.24ZM68.8002 144.517V145.582H76.8002V144.517H68.8002ZM72.8002 149.582H143.823V141.582H72.8002V149.582ZM139.823 145.582V185H147.823V145.582H139.823ZM143.823 181H4.26332V189H143.823V181Z" fill="url(#paint1_linear_401_2)"/>
<defs>
<linearGradient id="paint0_linear_401_2" x1="73.0003" y1="189.862" x2="73.0003" y2="-35" gradientUnits="userSpaceOnUse">
<stop stop-color="#0088FF" stop-opacity="0.1"/>
<stop offset="1" stop-color="#01E0FF"/>
</linearGradient>
<linearGradient id="paint1_linear_401_2" x1="72.9999" y1="189.862" x2="73.0002" y2="-35" gradientUnits="userSpaceOnUse">
<stop stop-color="#0088FF" stop-opacity="0.01"/>
<stop offset="1" stop-color="#01E0FF"/>
</linearGradient>
</defs>
</svg>
