<svg width="151" height="188" viewBox="0 0 151 188" fill="none" xmlns="http://www.w3.org/2000/svg">
<path d="M74.246 187.486C59.9231 187.486 47.1982 185.03 36.0713 180.117C25.0036 175.146 16.3033 168.31 9.97044 159.609C3.63758 150.909 0.441555 140.907 0.382369 129.602H50.0983C50.1575 133.094 51.2228 136.231 53.2943 139.013C55.425 141.735 58.3251 143.866 61.9946 145.405C65.6641 146.944 69.8663 147.713 74.6011 147.713C79.1584 147.713 83.183 146.914 86.675 145.316C90.1669 143.659 92.8895 141.38 94.8426 138.48C96.7957 135.58 97.7427 132.266 97.6835 128.537C97.7427 124.867 96.6182 121.612 94.3099 118.771C92.0609 115.93 88.8944 113.711 84.8106 112.113C80.7268 110.515 76.0216 109.716 70.6949 109.716H52.229V75.625H70.6949C75.6073 75.625 79.9278 74.826 83.6565 73.228C87.4444 71.63 90.3741 69.4105 92.4456 66.5696C94.5763 63.7287 95.612 60.4735 95.5528 56.804C95.612 53.2528 94.7538 50.116 92.9782 47.3935C91.2027 44.6709 88.7169 42.5402 85.5209 41.0014C82.384 39.4626 78.7441 38.6932 74.6011 38.6932C70.103 38.6932 66.0784 39.4922 62.5273 41.0902C59.0353 42.6882 56.2832 44.9077 54.2709 47.7486C52.2586 50.5895 51.2228 53.8447 51.1636 57.5142H3.93351C3.99269 46.3873 7.04075 36.5625 13.0777 28.0398C19.1738 19.517 27.519 12.8291 38.1132 7.97584C48.7074 3.12263 60.8701 0.696016 74.6011 0.696016C88.0363 0.696016 99.903 2.97466 110.201 7.53195C120.559 12.0892 128.638 18.3629 134.438 26.353C140.297 34.2838 143.197 43.3688 143.138 53.608C143.256 63.7879 139.764 72.133 132.662 78.6435C125.619 85.1539 116.682 89.0009 105.851 90.1847V91.6051C120.529 93.2031 131.567 97.7012 138.965 105.099C146.364 112.438 150.004 121.671 149.885 132.798C149.944 143.452 146.748 152.892 140.297 161.119C133.905 169.345 124.998 175.797 113.575 180.472C102.211 185.148 89.1016 187.486 74.246 187.486Z" fill="url(#paint0_linear_67_15)" fill-opacity="0.4"/>
<path d="M36.0713 180.117L34.4323 183.766L34.444 183.771L34.4558 183.776L36.0713 180.117ZM9.97044 159.609L13.2044 157.255L9.97044 159.609ZM0.382369 129.602V125.602H-3.63863L-3.61758 129.623L0.382369 129.602ZM50.0983 129.602L54.0977 129.534L54.0311 125.602H50.0983V129.602ZM53.2943 139.013L50.0861 141.402L50.1147 141.44L50.1443 141.478L53.2943 139.013ZM61.9946 145.405L60.4477 149.094L61.9946 145.405ZM86.675 145.316L88.3395 148.953L88.3648 148.942L88.39 148.93L86.675 145.316ZM94.8426 138.48L98.1603 140.715L94.8426 138.48ZM97.6835 128.537L93.684 128.472L93.683 128.536L93.684 128.6L97.6835 128.537ZM94.3099 118.771L91.1737 121.254L91.1895 121.274L91.2055 121.294L94.3099 118.771ZM52.229 109.716H48.229V113.716H52.229V109.716ZM52.229 75.625V71.625H48.229V75.625H52.229ZM83.6565 73.228L82.1017 69.5425L82.0913 69.5469L82.0808 69.5514L83.6565 73.228ZM92.4456 66.5696L89.2456 64.1696L89.2294 64.1911L89.2135 64.2129L92.4456 66.5696ZM95.5528 56.804L91.5534 56.7373L91.5523 56.8029L91.5533 56.8685L95.5528 56.804ZM92.9782 47.3935L89.6278 49.5785V49.5785L92.9782 47.3935ZM85.5209 41.0014L83.7592 44.5926L83.7724 44.5991L83.7856 44.6054L85.5209 41.0014ZM62.5273 41.0902L60.8858 37.4425L60.8743 37.4477L60.8628 37.453L62.5273 41.0902ZM54.2709 47.7486L57.535 50.0607V50.0606L54.2709 47.7486ZM51.1636 57.5142V61.5142H55.0996L55.1631 57.5787L51.1636 57.5142ZM3.93351 57.5142L-0.0664377 57.4929L-0.0878277 61.5142H3.93351V57.5142ZM13.0777 28.0398L9.82427 25.7127L9.81891 25.7202L9.81358 25.7277L13.0777 28.0398ZM38.1132 7.97585L39.7791 11.6124L38.1132 7.97585ZM110.201 7.53195L108.583 11.1898L108.59 11.1932L110.201 7.53195ZM134.438 26.353L131.201 28.7028L131.211 28.7164L131.221 28.7299L134.438 26.353ZM143.138 53.608L139.138 53.5848L139.138 53.6197L139.138 53.6545L143.138 53.608ZM132.662 78.6435L129.959 75.6948L129.953 75.7005L129.947 75.7061L132.662 78.6435ZM105.851 90.1847L105.417 86.2083L101.851 86.598V90.1847H105.851ZM105.851 91.6051H101.851V95.1933L105.418 95.5816L105.851 91.6051ZM138.965 105.099L136.137 107.928L136.143 107.934L136.148 107.939L138.965 105.099ZM149.885 132.798L145.885 132.756L145.885 132.788L145.885 132.821L149.885 132.798ZM140.297 161.119L137.15 158.65L137.144 158.657L137.139 158.664L140.297 161.119ZM113.575 180.472L112.06 176.77L112.053 176.773L113.575 180.472ZM74.246 183.486C60.3819 183.486 48.2225 181.109 37.6868 176.458L34.4558 183.776C46.1739 188.95 59.4643 191.486 74.246 191.486V183.486ZM37.7103 176.468C27.1954 171.745 19.0773 165.324 13.2044 157.255L6.73644 161.963C13.5293 171.296 22.8118 178.546 34.4323 183.766L37.7103 176.468ZM13.2044 157.255C7.39106 149.269 4.43734 140.092 4.38231 129.581L-3.61758 129.623C-3.55423 141.721 -0.115907 152.549 6.73644 161.963L13.2044 157.255ZM0.382369 133.602H50.0983V125.602H0.382369V133.602ZM46.0989 129.67C46.1721 133.993 47.5106 137.943 50.0861 141.402L56.5025 136.624C54.935 134.519 54.1428 132.195 54.0977 129.534L46.0989 129.67ZM50.1443 141.478C52.756 144.815 56.2442 147.331 60.4477 149.094L63.5415 141.716C60.4059 140.401 58.094 138.655 56.4443 136.548L50.1443 141.478ZM60.4477 149.094C64.6908 150.873 69.4341 151.713 74.6011 151.713V143.713C70.2984 143.713 66.6374 143.014 63.5415 141.716L60.4477 149.094ZM74.6011 151.713C79.627 151.713 84.2368 150.831 88.3395 148.953L85.0105 141.679C82.1293 142.997 78.6899 143.713 74.6011 143.713V151.713ZM88.39 148.93C92.4599 146.998 95.765 144.271 98.1603 140.715L91.5249 136.246C90.0139 138.489 87.8739 140.319 84.96 141.702L88.39 148.93ZM98.1603 140.715C100.601 137.09 101.754 132.962 101.683 128.473L93.684 128.6C93.7311 131.569 92.9901 134.07 91.5249 136.246L98.1603 140.715ZM101.683 128.601C101.757 123.994 100.318 119.822 97.4144 116.249L91.2055 121.294C92.9187 123.402 93.7281 125.741 93.684 128.472L101.683 128.601ZM97.4461 116.288C94.6734 112.786 90.8731 110.19 86.2682 108.388L83.353 115.838C86.9158 117.232 89.4484 119.075 91.1737 121.254L97.4461 116.288ZM86.2682 108.388C81.632 106.574 76.4163 105.716 70.6949 105.716V113.716C75.6269 113.716 79.8216 114.456 83.353 115.838L86.2682 108.388ZM70.6949 105.716H52.229V113.716H70.6949V105.716ZM56.229 109.716V75.625H48.229V109.716H56.229ZM52.229 79.625H70.6949V71.625H52.229V79.625ZM70.6949 79.625C76.0373 79.625 80.9123 78.756 85.2322 76.9046L82.0808 69.5514C78.9434 70.896 75.1772 71.625 70.6949 71.625V79.625ZM85.2113 76.9134C89.5538 75.0814 93.1102 72.4473 95.6776 68.9263L89.2135 64.2129C87.638 66.3737 85.335 68.1785 82.1017 69.5425L85.2113 76.9134ZM95.6456 68.9696C98.3277 65.3934 99.6253 61.2644 99.5523 56.7395L91.5533 56.8685C91.5987 59.6825 90.8248 62.0639 89.2456 64.1696L95.6456 68.9696ZM99.5523 56.8706C99.6235 52.5983 98.581 48.6619 96.3287 45.2084L89.6278 49.5785C90.9267 51.5701 91.6005 53.9074 91.5534 56.7373L99.5523 56.8706ZM96.3287 45.2084C94.1183 41.8191 91.0478 39.2231 87.2561 37.3974L83.7856 44.6054C86.3859 45.8574 88.2871 47.5228 89.6278 49.5785L96.3287 45.2084ZM87.2826 37.4103C83.5046 35.5569 79.2423 34.6932 74.6011 34.6932V42.6932C78.2459 42.6932 81.2635 43.3683 83.7592 44.5926L87.2826 37.4103ZM74.6011 34.6932C69.6244 34.6932 65.0271 35.5789 60.8858 37.4425L64.1687 44.7379C67.1297 43.4054 70.5816 42.6932 74.6011 42.6932V34.6932ZM60.8628 37.453C56.798 39.3131 53.4673 41.9628 51.0068 45.4365L57.535 50.0606C59.099 47.8525 61.2726 46.0633 64.1918 44.7274L60.8628 37.453ZM51.0068 45.4365C48.5024 48.972 47.2356 53.0201 47.1641 57.4497L55.1631 57.5787C55.21 54.6692 56.0147 52.2069 57.535 50.0607L51.0068 45.4365ZM51.1636 53.5142H3.93351V61.5142H51.1636V53.5142ZM7.93345 57.5355C7.98857 47.1729 10.8112 38.1598 16.3418 30.3518L9.81358 25.7277C3.27032 34.9652 -0.00318623 45.6017 -0.0664377 57.4929L7.93345 57.5355ZM16.3311 30.3669C21.9772 22.4733 29.7464 16.2084 39.7791 11.6124L36.4473 4.33926C25.2915 9.44973 16.3704 16.5607 9.82427 25.7127L16.3311 30.3669ZM39.7791 11.6124C49.7656 7.03761 61.3436 4.69601 74.6011 4.69601V-3.30398C60.3966 -3.30398 47.6492 -0.792355 36.4473 4.33926L39.7791 11.6124ZM74.6011 4.69601C87.5846 4.69601 98.8827 6.89734 108.583 11.1898L111.82 3.87411C100.923 -0.948017 88.4879 -3.30398 74.6011 -3.30398V4.69601ZM108.59 11.1932C118.395 15.5075 125.875 21.3657 131.201 28.7028L137.675 24.0032C131.401 15.3601 122.722 8.67101 111.812 3.87069L108.59 11.1932ZM131.221 28.7299C136.546 35.9381 139.193 44.1737 139.138 53.5848L147.138 53.6311C147.202 42.564 144.048 32.6296 137.655 23.9761L131.221 28.7299ZM139.138 53.6545C139.244 62.7699 136.171 70.0009 129.959 75.6948L135.365 81.5921C143.358 74.2652 147.269 64.8058 147.138 53.5614L139.138 53.6545ZM129.947 75.7061C123.617 81.5574 115.517 85.1045 105.417 86.2083L106.286 94.161C117.848 92.8974 127.621 88.7504 135.377 81.5808L129.947 75.7061ZM101.851 90.1847V91.6051H109.851V90.1847H101.851ZM105.418 95.5816C119.556 97.1208 129.602 101.393 136.137 107.928L141.794 102.271C133.532 94.0092 121.503 89.2855 106.284 87.6286L105.418 95.5816ZM136.148 107.939C142.723 114.461 145.993 122.628 145.885 132.756L153.885 132.841C154.014 120.714 150.004 110.416 141.783 102.26L136.148 107.939ZM145.885 132.821C145.94 142.59 143.032 151.148 137.15 158.65L143.445 163.587C150.464 154.635 153.949 144.313 153.885 132.776L145.885 132.821ZM137.139 158.664C131.249 166.245 122.955 172.311 112.06 176.77L115.09 184.174C127.04 179.283 136.561 172.446 143.456 163.573L137.139 158.664ZM112.053 176.773C101.262 181.213 88.6859 183.486 74.246 183.486V191.486C89.5173 191.486 103.161 189.083 115.097 184.171L112.053 176.773Z" fill="url(#paint1_linear_67_15)"/>
<defs>
<linearGradient id="paint0_linear_67_15" x1="75.5003" y1="189.862" x2="75.5003" y2="-35" gradientUnits="userSpaceOnUse">
<stop stop-color="#0088FF" stop-opacity="0.1"/>
<stop offset="1" stop-color="#01E0FF"/>
</linearGradient>
<linearGradient id="paint1_linear_67_15" x1="75.4999" y1="189.862" x2="75.5001" y2="-35" gradientUnits="userSpaceOnUse">
<stop stop-color="#0088FF" stop-opacity="0.01"/>
<stop offset="1" stop-color="#01E0FF"/>
</linearGradient>
</defs>
</svg>
