<svg width="23" height="23" viewBox="0 0 23 23" fill="none" xmlns="http://www.w3.org/2000/svg">
<path d="M11.5 0C5.14878 0 0 5.14878 0 11.5C0 17.8512 5.14878 23 11.5 23C17.8512 23 23 17.8512 23 11.5C23 5.14878 17.8512 0 11.5 0ZM17.969 5.34494L15.3941 17.4372C15.3459 17.6747 15.0753 17.791 14.8699 17.6623L10.9102 15.0361L8.8274 16.9744C8.64204 17.1329 8.35496 17.0558 8.27425 16.8253L6.91814 12.5483L3.27659 11.0548C2.9972 10.9275 3.00117 10.4825 3.28755 10.3713L17.5031 4.95219C17.7591 4.85284 18.0235 5.07579 17.969 5.34494Z" fill="#0088FF"/>
<path d="M8.71168 15.5573L8.94304 13.3586L15.3652 7.08105L7.61234 12.1725L8.71168 15.5573Z" fill="#0088FF"/>
</svg>
