<svg width="23" height="23" viewBox="0 0 23 23" fill="none" xmlns="http://www.w3.org/2000/svg">
<path d="M10.1949 13.183L13.7562 11.2938L10.1949 9.44287V13.183Z" fill="#FF0000"/>
<path d="M11.5 0C5.14878 0 0 5.14878 0 11.5C0 17.8512 5.14878 23 11.5 23C17.8512 23 23 17.8512 23 11.5C23 5.14878 17.8512 0 11.5 0ZM17.9209 14.1784C17.7677 15.1485 17.2987 15.6754 16.3125 15.7868C15.2104 15.9114 12.7323 15.9687 11.6308 15.9687C10.4911 15.9687 8.18612 15.921 7.03544 15.8251C6.04639 15.7428 5.37149 15.1903 5.23553 14.2071C5.13666 13.4911 5.07276 12.6402 5.07276 11.2871C5.07276 9.7808 5.1271 9.14344 5.25466 8.4629C5.43678 7.49183 5.90044 7.02143 6.9587 6.91207C8.06929 6.79713 9.11919 6.73973 11.4681 6.73973C12.6164 6.73973 15.0921 6.79922 16.2358 6.90251C17.2346 6.99278 17.7973 7.6038 17.9207 8.5779C18.0068 9.25771 18.0835 10.2309 18.0835 11.2777C18.0837 13.1156 17.9209 14.1784 17.9209 14.1784Z" fill="#FF0000"/>
</svg>
